<svg xmlns="http://www.w3.org/2000/svg" viewBox="-60 -100 6573 1100" role="img" aria-labelledby="title"><title id="title">ChennAI Week</title><rect x="2879" y="50" width="894" height="870" fill="#dcf246"/><g fill="#151713" transform="translate(0 820) scale(1 -1)"><path d="M332 -14Q202 -14 126.0 58.5Q50 131 50 266V434Q50 569 126.0 641.5Q202 714 332 714Q461 714 531.5 643.5Q602 573 602 450V444H472V454Q472 516 437.5 556.0Q403 596 332 596Q262 596 222.0 553.0Q182 510 182 436V264Q182 191 222.0 147.5Q262 104 332 104Q403 104 437.5 144.5Q472 185 472 246V264H602V250Q602 127 531.5 56.5Q461 -14 332 -14Z" transform="translate(0 0)"/><path d="M70 0V700H196V435H214Q222 451 239.0 467.0Q256 483 284.5 493.5Q313 504 357 504Q415 504 458.5 477.5Q502 451 526.0 404.5Q550 358 550 296V0H424V286Q424 342 396.5 370.0Q369 398 318 398Q260 398 228.0 359.5Q196 321 196 252V0Z" transform="translate(612 0)"/><path d="M296 -14Q222 -14 165.5 17.5Q109 49 77.5 106.5Q46 164 46 242V254Q46 332 77.0 389.5Q108 447 164.0 478.5Q220 510 294 510Q367 510 421.0 477.5Q475 445 505.0 387.5Q535 330 535 254V211H174Q176 160 212.0 128.0Q248 96 300 96Q353 96 378.0 119.0Q403 142 416 170L519 116Q505 90 478.5 59.5Q452 29 408.0 7.5Q364 -14 296 -14ZM175 305H407Q403 348 372.5 374.0Q342 400 293 400Q242 400 212.0 374.0Q182 348 175 305Z" transform="translate(1196 0)"/><path d="M70 0V496H194V431H212Q224 457 257.0 480.5Q290 504 357 504Q415 504 458.5 477.5Q502 451 526.0 404.5Q550 358 550 296V0H424V286Q424 342 396.5 370.0Q369 398 318 398Q260 398 228.0 359.5Q196 321 196 252V0Z" transform="translate(1741 0)"/><path d="M70 0V496H194V431H212Q224 457 257.0 480.5Q290 504 357 504Q415 504 458.5 477.5Q502 451 526.0 404.5Q550 358 550 296V0H424V286Q424 342 396.5 370.0Q369 398 318 398Q260 398 228.0 359.5Q196 321 196 252V0Z" transform="translate(2325 0)"/><path d="M18 0 202 700H432L616 0H480L442 154H192L154 0ZM223 276H411L326 617H308Z" transform="translate(2909 0)"/><path d="M66 0V700H198V0Z" transform="translate(3511 0)"/><path d="" transform="translate(3743 0)"/><path d="M122 0 30 700H161L229 92H247L335 700H563L651 92H669L737 700H868L776 0H548L458 622H440L350 0Z" transform="translate(3965 0)"/><path d="M296 -14Q222 -14 165.5 17.5Q109 49 77.5 106.5Q46 164 46 242V254Q46 332 77.0 389.5Q108 447 164.0 478.5Q220 510 294 510Q367 510 421.0 477.5Q475 445 505.0 387.5Q535 330 535 254V211H174Q176 160 212.0 128.0Q248 96 300 96Q353 96 378.0 119.0Q403 142 416 170L519 116Q505 90 478.5 59.5Q452 29 408.0 7.5Q364 -14 296 -14ZM175 305H407Q403 348 372.5 374.0Q342 400 293 400Q242 400 212.0 374.0Q182 348 175 305Z" transform="translate(4831 0)"/><path d="M296 -14Q222 -14 165.5 17.5Q109 49 77.5 106.5Q46 164 46 242V254Q46 332 77.0 389.5Q108 447 164.0 478.5Q220 510 294 510Q367 510 421.0 477.5Q475 445 505.0 387.5Q535 330 535 254V211H174Q176 160 212.0 128.0Q248 96 300 96Q353 96 378.0 119.0Q403 142 416 170L519 116Q505 90 478.5 59.5Q452 29 408.0 7.5Q364 -14 296 -14ZM175 305H407Q403 348 372.5 374.0Q342 400 293 400Q242 400 212.0 374.0Q182 348 175 305Z" transform="translate(5376 0)"/><path d="M70 0V700H196V313H214L378 496H542L313 256L550 0H388L214 197H196V0Z" transform="translate(5921 0)"/></g></svg>